<svg width="150" height="150" viewBox="0 0 150 150" fill="none" xmlns="http://www.w3.org/2000/svg">
<path fill-rule="evenodd" clip-rule="evenodd" d="M47.3257 117.123C57.5765 122.337 61.6687 123.654 71.1021 124.777C74.7475 125.214 83.932 124.248 87.943 123.003C92.487 121.6 102.641 117.001 106.942 114.404C110.826 112.051 119.421 103.411 120.833 100.438C121.863 98.2582 124.483 88.4598 125.448 83.1743C126.829 75.5816 126.301 69.7066 123.224 58.5716C121.823 53.4793 119.604 49.1239 116.685 45.7341C115.35 44.1841 113.39 41.8514 112.334 40.5605C111.273 39.2645 109.018 37.2622 107.317 36.1035C103.926 33.8012 95.3201 29.5576 94.0356 29.5576C93.5888 29.5576 92.1266 29.1257 90.7811 28.592C87.1002 27.1385 74.7576 25.314 71.1021 25.685C61.2981 26.671 59.0235 27.0725 54.8551 28.5463C47.4679 31.1636 44.8633 32.8204 38.3493 39.0664C31.3631 45.7697 28.5047 50.0641 26.1539 57.3977C23.7575 64.8634 22.8843 70.5859 22.9097 78.6004C22.9401 87.1537 23.7068 90.6451 27.1592 97.9126C29.3881 102.603 30.0024 103.411 35.105 108.361C40.1821 113.281 41.1925 114.008 47.3257 117.123ZM84.2316 118.719C89.4864 117.382 93.2029 115.99 99.0264 113.159C107.368 109.103 110.78 106.613 113.679 102.461C117.193 97.4349 117.919 95.5595 119.396 87.6619C120.518 81.6751 120.681 79.627 120.498 73.7775C120.305 67.6992 120.092 66.3575 118.634 62.0834C115.944 54.1705 111.887 47.2588 107.15 42.5171C103.327 38.6903 98.2801 35.4682 97.4322 36.3169C97.2545 36.4999 98.4781 38.116 100.159 39.91C102.342 42.2478 103.951 44.6974 105.815 48.5293C108.988 55.0548 109.125 56.0102 106.627 54.2721C106.079 53.8859 104.637 53.4031 103.423 53.1998C102.215 52.9965 99.7626 52.1681 97.9755 51.3601C96.1934 50.5469 94.6499 49.8863 94.5534 49.8863C94.1879 49.8863 94.7921 60.8434 95.2237 62.0834C95.4623 62.7848 95.8075 64.0959 95.9903 65.0057C96.2594 66.388 96.1629 66.6574 95.381 66.6574C94.8682 66.6574 94.1574 66.1949 93.8071 65.6308C93.4568 65.0717 92.2535 64.2433 91.1416 63.7961C88.6944 62.8152 85.4247 59.2527 83.6274 55.6037C82.9064 54.1349 82.1398 52.9355 81.9266 52.9355C81.7133 52.9355 80.769 54.14 79.8297 55.6138C78.8853 57.0877 76.6514 59.6236 74.8642 61.2398C73.072 62.861 71.4371 64.6499 71.229 65.2089C70.7111 66.6116 69.6703 66.139 69.2946 64.3348C69.127 63.5166 68.5889 62.0783 68.1015 61.1381C67.1419 59.2984 66.8677 53.2201 67.543 48.7428C67.7613 47.2842 67.7105 46.3287 67.416 46.3287C67.1469 46.3287 65.0095 47.2232 62.6689 48.3159C60.3232 49.4136 57.2668 50.4605 55.8706 50.6486C54.4743 50.8315 52.5755 51.2178 51.6464 51.5024C50.7223 51.787 49.8288 51.8835 49.6612 51.7158C49.1687 51.2229 52.0221 46.3186 54.9161 42.6899C59.0032 37.5671 63.1106 34.528 68.1776 32.8865C74.5342 30.8231 70.3455 30.5842 62.5876 32.5663C54.647 34.5991 43.6092 40.0879 40.2938 43.6555C37.4202 46.7556 33.0944 53.21 32.4192 55.4156C29.8958 63.6386 28.2204 71.8869 27.9157 77.5992C27.5095 85.1767 28.2407 88.9782 31.4088 95.7628C33.3483 99.92 34.3282 101.297 37.9279 104.926C44.2896 111.34 50.9508 114.785 63.7402 118.282C69.1372 119.761 79.2864 119.974 84.2316 118.719ZM89.6083 45.9476C91.0604 48.448 92.619 54.2976 92.8577 58.1498C92.9744 60.0404 92.8932 61.6972 92.6749 61.8344C92.4566 61.9665 91.1467 61.0619 89.7657 59.8219C86.6483 57.0165 83.5716 50.9586 83.1705 46.837C82.876 43.8639 82.2921 42.263 81.4899 42.263C81.2208 42.263 81.0025 43.0152 81.0025 43.935C81.0025 46.3643 79.6114 51.3245 78.3472 53.4133C76.8139 55.9493 72.8994 60.513 71.7113 61.1483C70.3202 61.8954 70.0257 61.2144 69.6297 56.3152C69.193 50.8722 70.2897 44.3975 72.087 41.8005C73.2852 40.0675 73.7472 38.7055 73.1329 38.7055C72.9908 38.7055 71.9702 39.6152 70.8584 40.7282C67.3754 44.2146 54.7942 49.7744 53.4437 48.4226C52.9613 47.9398 57.9319 41.8717 60.7649 39.4831C61.7042 38.6954 64.4154 37.1046 66.7865 35.951C69.1575 34.7923 72.1327 33.2575 73.3868 32.5358C75.4126 31.3669 76.169 31.2297 80.0378 31.311C84.2722 31.4025 84.5362 31.4787 88.669 33.8876C95.97 38.1363 97.7622 39.7067 100.905 44.6262C104.51 50.2674 104.769 50.9027 103.494 50.9027C101.981 50.9027 93.7462 47.4265 91.3498 45.7799C90.1668 44.9616 89.0752 44.2959 88.9229 44.2959C88.7756 44.2959 89.0854 45.0379 89.6083 45.9476Z" fill="#C8C8C8"/>
</svg>
