<svg width="1201" height="724" viewBox="0 0 1201 724" fill="none" xmlns="http://www.w3.org/2000/svg">
<g clip-path="url(#clip0_1_2)">
<rect width="1201" height="724" fill="white"/>
<g clip-path="url(#clip1_1_2)">
<path d="M1090.02 721.969L1088.94 724H708.563L707.962 720.13C705.949 707.143 701.725 697.162 691.854 682.108C685.399 672.254 679.407 659.277 675.965 647.693C672.824 637.102 671.914 616.666 674.172 607.076C676.548 597.004 681.338 588.908 690.161 580.083C696.717 573.526 699.548 571.468 708.308 566.924C721.92 559.857 728.513 555.531 735.706 548.947C750.466 535.414 754.017 524.513 748.836 508.64C745.913 499.697 742.38 492.557 736.207 483.122C716.475 452.96 715.046 450.638 708.153 437.587C703.518 428.827 699.312 415.658 696.926 402.526C694.905 391.388 694.932 371.207 696.99 361.089C699.831 347.092 707.834 333.787 716.075 329.379C719.316 327.64 721.21 327.394 731.162 327.394C743.282 327.403 748.681 328.587 760.573 333.85C771.454 338.668 787.998 349.387 800.126 359.477C809.132 366.981 811.016 367.919 817.072 367.919C829.892 367.919 847.848 357.993 855.514 346.655C862.444 336.41 864.292 321.374 860.094 309.48C855.97 297.778 850.015 291.795 835.419 284.673C825.631 279.901 807.183 272.971 796.266 269.975C787.716 267.625 773.193 260.121 766.491 254.602C757.185 246.916 750.202 235.705 746.487 222.491C743.546 212.009 743.518 191.892 746.423 181.856C749.155 172.439 751.932 167.148 757.258 161.211C770.461 146.512 795.264 139.737 827.352 142.059C882.785 146.066 935.66 171.866 957.085 205.361C961.283 211.918 962.093 213.475 965.052 220.633C972.846 239.53 976.097 281.34 970.816 294.909C965.735 307.996 954.599 320.992 936.944 334.47C914.144 351.864 901.815 364.978 893.247 380.906C887.037 392.472 884.907 400.85 884.97 413.472C885.061 431.14 892.109 446.794 906.814 462.003C914.59 470.054 920.964 474.562 939.503 485.135C969.031 501.964 979.712 510.151 988.162 522.409C998.114 536.844 1000.75 555.44 996.511 581.076C993.798 597.468 988.954 608.16 980.195 617.085C973.42 623.997 967.274 627.193 958.396 628.423C945.421 630.235 927.32 624.871 907.279 613.296C904.246 611.548 901.433 611.994 901.433 614.225C901.433 614.99 903.354 617.358 905.703 619.489C922.794 635.025 925.444 638.723 925.289 646.855C925.061 659.086 912.359 667.819 875.483 681.097C843.331 692.681 835.492 696.87 827.461 706.77C824.074 710.941 821.133 716.778 820.031 721.496L819.448 724L928.294 723.991L932.801 715.121C939.22 702.499 948.453 693.51 965.69 683.092C993.98 665.998 999.534 661.572 1011.81 646.364C1029.57 624.361 1038.82 602.313 1041.76 574.983C1043.51 558.591 1040.5 538.119 1034.4 524.923C1032.88 521.644 1031.64 518.785 1031.64 518.557C1031.64 517.328 1022.5 503.276 1018.66 498.604C1009.91 487.976 1001.23 481.319 980.65 469.489C950.593 452.213 938.018 441.512 931.544 427.716C926.063 416.04 925.59 414 925.571 402.052C925.562 391.525 925.671 390.878 928.531 385.077C933.657 374.65 943.272 366.818 965.225 355.161C988.134 343.003 998.87 334.178 1005.17 322.367C1013.54 306.657 1015.17 290.465 1011.58 258.636C1008.42 230.66 1005.79 217.364 1000.63 203.294C993.853 184.807 979.211 166.338 963.031 155.874C955.3 150.874 938.911 143.616 929.951 141.23C924.57 139.791 909.573 133.471 901.014 129.036C889.614 123.116 875.127 111.05 865.731 99.6388C852.51 83.5833 847.811 70.0777 850.425 55.6615C852.865 42.2015 859.33 32.7576 880.199 12.1486C886.373 6.0561 891.417 0.82873 891.417 0.537308C891.417 0.245887 863.545 0 829.482 0H956.275L951.312 13.205L951.076 45.0792C950.766 86.0513 951.458 97.4622 954.681 104.493C960.418 117.024 967.074 119.528 998.861 121.149C1020.16 122.242 1026.09 123.654 1038.18 130.548C1047.32 135.757 1052.56 140.146 1059.88 148.725C1067.88 158.105 1073.22 167.121 1079.89 182.484C1087.1 199.123 1087.66 200.871 1090.86 217.054C1097.86 252.508 1096.24 269.201 1081.76 310.546C1075.96 327.066 1075.24 329.525 1068.99 353.804C1064.34 371.854 1062.11 383.292 1060.37 397.972C1059.62 404.238 1058.56 412.844 1057.99 417.097C1056.61 427.57 1056.6 453.142 1057.96 462.549C1060.25 478.204 1064.13 490.544 1071.18 504.623C1074.84 511.945 1079.82 521.162 1082.23 525.114C1092.17 541.434 1102.27 562.926 1107.01 577.834C1114.07 600.1 1116.12 608.579 1117.77 622.458C1120.21 643.039 1118.74 662.128 1113.46 678.465C1110.39 687.946 1102.93 702.845 1096.79 711.724C1093.67 716.25 1090.62 720.858 1090.02 721.969ZM624.247 719.674L623.609 724H541.069L540.423 719.711C538.629 707.726 534.185 701.752 515.975 686.853C507.079 679.576 499.794 670.77 495.506 662.118C492.583 656.217 492.146 654.496 492.146 648.85C492.146 643.504 492.528 641.801 494.322 639.187C497.427 634.643 503.846 630.199 516.557 623.751C530.088 616.893 535.615 612.841 539.039 607.286C546.114 595.802 546.414 578.927 539.776 566.323C535.852 558.882 534.868 558.081 509.428 541.907C503.045 537.855 501.078 536.033 498.611 531.89C494.404 524.832 493.202 519.623 493.703 510.68C494.532 496.008 499.722 489.57 517.714 480.918C536.781 471.738 537.208 471.483 541.543 466.73C549.819 457.641 551.641 448.279 547.725 434.965C543.582 420.867 538.857 415.112 527.475 410.276C521.301 407.653 521.201 407.644 496.243 407.052C464.529 406.305 458.838 404.912 448.686 395.413C441.802 388.975 439.553 384.467 439.08 376.225C438.561 367.1 439.917 360.288 443.969 351.718C448.823 341.437 454.604 334.16 468.672 320.682C486.464 303.616 492.556 294.964 498.237 278.653C501.151 270.275 501.242 269.583 501.251 255.449C501.251 241.16 501.197 240.723 498.265 233.137C491.49 215.57 486.756 209.386 457.318 179.625C442.285 164.425 435.756 152.095 435.747 138.88C435.738 130.839 437.168 126.213 441.702 119.619C444.671 115.312 448.677 112.133 465.076 101.105C470.949 97.1526 477.459 92.1529 479.535 89.9855C491.572 77.4908 489.214 64.8686 473.216 56.0349C468.354 53.3574 454.504 47.8386 447.53 45.8169C431.158 41.054 413.621 32.4753 408.24 26.6013C403.678 21.6107 400.172 10.9283 399.754 0.683019C399.735 0.309635 367.393 0 327.876 0H698.62L697.973 6.60252C696.58 20.9732 693.111 32.4206 681.784 60.1512C675.41 75.724 673.452 84.2663 673.971 94.1473C674.463 103.573 676.521 107.999 684.324 116.432C689.897 122.443 690.188 122.98 690.188 127.278C690.188 131.276 689.76 132.287 686.409 136.094C681.301 141.895 668.408 150.41 660.295 153.333C655.424 155.091 651.9 155.728 647.029 155.728C635.492 155.728 634.764 152.249 642.922 136.076C647.393 127.215 647.593 126.486 647.22 120.985C646.637 112.48 643.049 105.74 634.627 97.3165C628.836 91.5154 626.159 89.6394 618.638 86.0695C613.666 83.7108 608.886 81.1426 608.012 80.3594C605.563 78.192 606.091 73.1377 609.414 66.8994C621.852 43.5037 623.163 39.9885 623.008 30.5082C622.89 23.341 620.923 16.2923 616.352 6.64805L613.248 0.0819623L580.923 0V4.19829C580.923 12.9409 584.393 22.4394 592.187 35.0343C599.07 46.1721 600.937 50.7437 600.937 56.4629C600.937 62.2822 599.189 65.8066 591.631 75.296C585.148 83.4376 584.566 84.6488 584.566 90.031C584.566 93.6373 585.076 95.1946 587.06 97.5988C590.757 102.079 591.741 102.708 598.224 104.748C620.896 111.878 627.425 115.74 631.049 124.155C634.163 131.404 633.307 139.081 628.044 151.175C621.37 166.511 620.077 171.128 620.086 179.607C620.104 193.14 625.485 200.498 640.864 208.02C657.527 216.162 665.795 220.624 668.79 223.074C669.792 223.894 671.832 225.169 673.325 225.897C677.331 227.846 686.774 237.59 688.731 241.789C689.66 243.792 691.226 247.071 692.209 249.074C699.139 263.245 701.87 284.81 699.275 304.79C697.181 320.946 693.056 330.244 680.582 346.937C672.688 357.501 668.098 365.934 666.514 372.801C662.899 388.483 668.936 409.046 690.552 454.617C692.856 459.48 694.741 463.697 694.741 463.988C694.741 464.28 699.794 474.653 705.977 487.038C718.224 511.572 720.7 517.728 721.629 525.979C722.922 537.408 718.214 545.085 706.341 550.95C692.483 557.79 679.599 558.627 664.028 553.71C656.38 551.305 648.513 545.477 644.534 539.303C640.655 533.283 641.228 528.046 646.892 517.92C664.238 486.874 666.642 476.137 659.913 459.69C655.915 449.927 652.428 444.918 641.11 432.679C628.353 418.891 624.984 414.228 618.538 401.406C613.357 391.115 611.854 383.556 611.263 364.687C610.489 340.48 612.556 326.101 622.435 286.904C627.853 265.412 628.572 257.58 625.94 248.737C624.147 242.672 619.284 237.7 611.672 234.157C608.531 232.691 602.886 230.068 599.134 228.329C579.203 219.094 575.961 205.889 587.416 180.554C588.945 177.166 591.431 171.119 592.933 167.112C595.474 160.327 595.638 159.162 595.274 150.264C594.663 135.101 591.868 131.395 574.887 123.217C569.888 120.812 564.525 118.317 562.968 117.67C557.841 115.53 552.77 111.186 549.291 105.95C545.895 100.823 545.868 100.723 545.904 91.6065C545.931 82.7637 546.15 81.8074 551.449 66.4805C557.732 48.3486 559.444 40.7079 559.417 30.9635C559.389 23.4048 557.85 17.4671 553.662 8.89746C551.959 5.4004 551.222 3.26028 549.737 1.95799C547.407 -0.0819622 543.245 -0.0273208 530.571 0.136604C528.74 0.163925 526.728 0.191245 524.516 0.209459L500.659 0.455346L503.236 3.84312C504.648 5.70093 509.41 11.9665 513.826 17.7585C528.968 37.6389 534.486 48.5581 534.486 58.6668C534.486 65.5971 533.029 69.3765 527.894 75.7696C515.784 90.8415 513.926 95.4041 516.33 104.083C517.687 108.955 524.843 116.022 536.307 123.79C557.723 138.298 563.878 145.401 566.346 158.424C567.648 165.281 567.493 170.882 565.781 178.614C564.306 185.244 556.894 202.756 551.704 211.872C542.28 228.402 540.942 240.732 547.889 247.016C550.32 249.22 557.687 250.44 568.595 250.44C584.01 250.44 590.939 253.637 595.155 262.698C599.089 271.149 597.55 287.36 591.222 304.171C582.735 326.683 573.903 343.021 563.623 355.17C557.75 362.118 554.072 367.756 552.724 371.89C551.413 375.906 552.078 383.201 554.099 387.117C556.876 392.49 567.32 398.992 581.679 404.293C614.449 416.396 626.469 426.841 636.794 452.158C642.567 466.292 642.376 489.57 636.348 507.711C631.695 521.708 624.174 533.192 608.367 550.413C603.787 555.404 599.635 560.831 599.061 562.58C595.201 574.273 605.135 591.795 622.754 604.344C626.541 607.04 632.296 611.147 635.556 613.469C648.085 622.412 662.271 635.672 665.276 641.236C666.45 643.422 666.942 646.3 666.951 651.145C666.978 662.856 664.848 666.016 641.875 688.255C630.976 698.81 626.032 707.626 624.247 719.674ZM233.098 715.84V724H0V672.883L6.2645 678.493C9.71544 681.58 17.6007 687.754 23.7924 692.208C39.5265 703.528 42.5039 706.187 46.5922 712.525C48.5681 715.576 51.4909 719.401 53.0935 721.013L55.9981 723.945L76.2212 723.973L96.4351 724L100.05 717.853C102.035 714.474 104.156 709.857 104.748 707.608C106.305 701.706 106.096 689.048 104.302 681.653C96.1164 647.702 99.7222 623.387 115.274 607.841C121.056 602.049 127.703 598.725 136.125 597.396C147.097 595.665 151.823 593.917 156.522 589.846C164.27 583.134 169.315 569.993 169.342 556.433C169.378 533.183 157.013 496.883 143.118 479.479C133.594 467.549 127.038 461.539 100.159 440.064C63.4372 410.731 54.5048 401.333 45.9731 383.082C39.5174 369.258 37.7782 361.508 37.8511 346.974C38.0241 315.473 50.2981 294.49 79.6812 275.484C100.041 262.316 106.651 256.378 116.176 242.699C120.965 235.824 130.507 216.918 135.251 204.906C144.111 182.466 144.949 167.467 138.129 152.787C132.866 141.43 125.754 136.349 107.444 130.885C96.9177 127.743 93.312 126.95 77.3958 124.291C66.269 122.433 57.5733 119.592 54.9146 116.933C53.4577 115.485 52.8112 113.764 52.8021 111.378C52.793 108.181 53.4031 107.352 60.7693 100.631C76.8767 85.9147 83.4964 78.62 86.8927 71.8172C89.8701 65.8703 90.1433 64.6682 90.1342 57.4829C90.116 43.695 84.2521 28.1495 71.7868 8.78818C69.902 5.85575 68.1083 2.68654 67.8078 1.73031C67.2797 0.0728553 65.8683 0 33.6262 0H167.539L167.53 3.41509C167.53 8.60604 166.055 12.859 162.222 18.7694C157.077 26.7015 151.996 31.6192 135.67 44.4235C125.618 52.3101 113.744 64.2402 111.732 68.4749C104.584 83.556 110.995 95.5953 132.165 106.815C143.555 112.853 157.068 121.86 161.957 126.668C164.143 128.817 167.375 132.752 169.132 135.402C175.142 144.463 174.059 156.867 166.191 168.933C159.107 179.78 154.646 190.808 152.97 201.582C151.723 209.578 153.517 220.697 157.96 232.563C162.231 243.974 163.87 251.442 163.888 259.584C163.915 275.211 157.915 286.431 142.863 298.898C139.057 302.049 135.16 305.127 134.213 305.747C121.138 314.207 111.067 321.347 106.861 325.117C95.8706 334.98 89.0962 350.279 90.553 361.936C91.3179 368.092 96.1437 379.066 101.662 387.199C106.16 393.829 125.8 414.383 134.641 421.696C183.382 462.076 216.799 483.368 258.902 500.88C274.345 507.31 289.497 519.832 294.377 530.214C298.083 538.082 299.886 549.038 299.248 559.72C298.21 576.859 294.067 590.647 283.669 611.53C274.154 630.654 274.072 630.8 258.028 654.897C250.826 665.734 243.105 678.447 240.874 683.155C235.747 693.965 233.098 705.121 233.098 715.84ZM479.417 714.21L481.884 724H298.42L300.004 718.345C308.581 687.773 339.221 680.214 361.593 703.145C365.827 707.489 368.668 711.496 371.154 716.632L374.687 723.936L461.643 724V714.665C461.643 699.384 455.925 662.109 450.334 640.854C447.001 628.186 443.787 617.995 440.528 609.708C438.561 604.699 436.467 599.372 435.875 597.869C433.198 591.085 424.183 574.337 420.141 568.636C417.691 565.175 412.756 559.42 409.187 555.823C398.761 545.34 391.076 542.344 370.944 540.914C363.869 540.414 356.066 539.476 353.589 538.838C341.971 535.824 327.393 524.039 321.575 512.965C311.386 493.549 307.288 470.8 308.017 437.678C308.436 418.7 308.7 415.886 310.758 408.901C319.171 380.296 329.415 363.384 351.113 342.256C355.064 338.404 363.469 330.208 369.788 324.042C387.07 307.176 392.014 298.334 391.322 285.502C391.003 279.637 390.375 277.133 388.099 272.661C382.626 261.924 373.193 256.023 359.08 254.52C351.978 253.764 344.866 255.513 333.257 260.877C306.797 273.089 294.778 276.359 276.348 276.386C265.54 276.395 262.499 276.067 256.317 274.228C241.265 269.738 228.536 262.225 222.599 254.311C210.498 238.201 200.437 222.054 197.915 214.677C196.804 211.444 196.267 207.137 196.248 201.263C196.212 190.726 197.687 187.42 206.419 178.368C213.931 170.591 223.528 164.198 242.203 154.544C269.683 140.338 275.957 136.076 280.601 128.435C283.341 123.945 283.633 122.798 283.605 116.596C283.569 108.937 281.866 104.657 276.831 99.5477C270.821 93.4552 258.165 89.8762 238.752 88.7651C211.554 87.217 186.715 77.9188 182.435 67.6917C178.802 58.9764 183.674 47.8933 197.805 32.7849C200.373 30.0255 205.991 24.024 210.28 19.4342C214.568 14.8443 219.422 8.59693 221.07 5.54611L224.065 0H256.016L255.388 6.74823C254.705 14.0155 255.379 17.2212 259.221 24.8801C262.19 30.8087 269.51 40.9902 276.367 48.722C291.39 65.67 312.096 95.4405 316.321 106.168C319.308 113.755 320.364 124.4 318.752 130.839C318.151 133.262 315.438 139.791 312.733 145.346C306.606 157.932 305.03 163.888 305.039 174.361C305.058 189.479 308.764 197.055 322.003 209.013C333.184 219.112 338.52 222.746 344.885 224.595C348.627 225.688 350.366 225.779 352.56 225.014C360.346 222.3 365.654 214.313 366.628 203.858C367.293 196.691 366.055 192.42 359.654 179.834C351.695 164.216 351.705 157.632 359.699 142.541C363.724 134.937 364.771 131.85 366.974 120.985C368.395 114.01 370.307 106.988 371.236 105.376C373.384 101.642 382.982 95.1582 389.018 93.3641C399.863 90.1403 406.483 92.3441 410.234 100.422C414.495 109.565 413.193 116.468 404.097 132.961C395.884 147.86 388.8 169.962 388.8 180.699C388.8 192.93 395.356 210.734 404.07 222.209C406.546 225.46 412.237 232.017 416.726 236.78C428.891 249.684 433.735 257.562 436.995 269.738C440.792 283.963 439.963 301.393 434.727 317.34C429.173 334.233 422.808 343.203 400.728 365.251C381.607 384.348 373.503 393.801 366.829 404.802C356.348 422.06 352.151 436.121 352.014 454.435C351.941 464.68 352.269 467.913 353.981 473.833C357.004 484.26 360.81 491.081 367.193 497.502C374.331 504.696 381.561 508.494 393.507 511.363C426.496 519.286 436.257 523.575 444.561 533.811C453.302 544.575 456.435 556.761 458.447 587.852C460.741 623.35 468.927 672.682 479.417 714.21ZM1195 572.206C1197.96 575.548 1200.52 578.289 1200.69 578.289C1200.86 578.289 1201 564.046 1201 546.634V724H1141.32C1170.14 724 1193.72 723.791 1193.72 723.536C1193.72 723.281 1190.95 721.304 1187.57 719.128C1175.84 711.596 1166.94 699.949 1163.33 687.436C1161.03 679.422 1161.18 678.912 1166.85 676.225C1169.61 674.923 1171.86 673.52 1171.86 673.101C1171.86 672.682 1170.09 671.663 1167.92 670.834C1160.85 668.129 1160.24 667.036 1161.1 658.776C1161.51 654.824 1162.52 648.321 1163.33 644.314C1164.44 638.814 1164.69 634.015 1164.33 624.735C1163.91 613.961 1163.44 611.102 1160.53 601.603C1155.64 585.666 1148.28 570.913 1136.74 553.901C1128.89 542.317 1128.78 542.171 1114.81 524.704C1096.58 501.882 1093.89 496.309 1096.28 486.337C1097.71 480.39 1103.62 473.733 1111.28 469.443C1125.44 461.52 1133.57 446.922 1133.61 429.318C1133.62 421.577 1130.17 403.6 1126.78 393.728C1123.06 382.919 1115.38 366.417 1106.29 349.706C1098.8 335.936 1098.12 334.26 1098.11 329.643C1098.11 321.511 1102.97 315.883 1115.02 310.091C1121.55 306.949 1124.15 305.091 1127.46 301.22C1141.35 284.955 1147.18 263.008 1141.19 249.484C1138.39 243.173 1134.45 239.302 1123.05 231.653C1117.32 227.8 1111.59 223.593 1110.29 222.309C1104.36 216.38 1103.44 209.65 1106.2 192.375C1107.26 185.726 1108.13 176.683 1108.13 172.276C1108.13 159.699 1103.69 144.745 1096.93 134.564C1091.47 126.331 1075.24 110.458 1067.58 105.868C1059.28 100.896 1045.5 95.0125 1038.1 93.3004C1025.56 90.3771 1020.91 86.707 1021.92 80.496C1022.32 78.019 1024.21 75.4053 1029.75 69.6315C1033.76 65.4514 1037.3 61.0072 1037.61 59.7414C1039.17 53.5396 1034.39 49.1591 1023.61 46.8915C1010.45 44.1321 1004.32 41.819 1000.65 38.2126C995.501 33.1674 994.044 29.7523 994.481 23.7326C994.845 18.7056 997.276 13.9427 1002.2 8.65157C1005.07 5.57343 1007.97 1.62103 1007.97 0.792302C1007.97 0.35517 996.338 0 982.125 0H1093.85L1092.71 2.5044C1092.08 3.87955 1088.79 8.89746 1085.4 13.6604C1077.5 24.7344 1069.55 38.9685 1067.08 46.4817C1065.65 50.8257 1065.12 54.7508 1065.08 61.4717C1064.99 76.0974 1067.8 80.2775 1080.35 84.1843C1089.79 87.1168 1096.94 91.4699 1100.11 96.1964C1101.51 98.2728 1104.02 104.821 1105.74 110.84C1109.18 122.934 1111.59 128.262 1115.5 132.433C1116.95 133.972 1118.13 135.547 1118.14 135.921C1118.14 137.341 1129.31 144.764 1134.33 146.685C1137.19 147.778 1142 148.998 1145 149.399C1152.5 150.383 1157.55 149.854 1165.03 147.295C1174.43 144.09 1180.3 140.41 1191.16 130.967L1200.9 122.488L1201 0V167.704L1188.94 168.177C1182.3 168.451 1174.41 169.27 1171.41 170.017C1151.95 174.835 1134.6 192.438 1134.22 207.774C1133.96 218.111 1139.46 225.387 1155.93 236.507C1168.83 245.222 1172.76 250.395 1172.76 258.636C1172.76 268.891 1169.37 275.038 1156.34 288.416C1143.98 301.084 1135.15 312.467 1130.42 321.793C1126.78 328.978 1126.34 330.526 1126.34 336C1126.34 346.345 1132.22 360.097 1145.44 380.651C1155.29 395.978 1158.34 402.353 1160.52 412.124C1163.31 424.692 1160.66 440.228 1153.39 453.88C1149.14 461.857 1136.57 475.445 1126.7 482.74C1116.84 490.016 1112.68 495.079 1112.68 499.797C1112.68 504.195 1115.67 507.793 1124.21 513.594C1133.98 520.251 1165.32 543.902 1171.68 549.429C1179.98 556.633 1189.2 565.64 1195 572.206ZM724.925 0H767.547L763.587 3.64277C761.419 5.64629 758.351 9.89922 756.785 13.0866C752.942 20.8913 752.915 27.3116 756.657 39.1597C758.269 44.2687 759.389 49.7875 759.389 52.6653C759.389 58.1204 756.202 68.2746 751.631 77.4088C746.05 88.5648 744.529 97.1799 746.751 105.176C747.934 109.429 750.757 113.026 756.384 117.406C761.438 121.341 763.122 124.546 763.168 130.274C763.241 138.707 759.252 144.281 742.662 158.952C725.99 173.696 718.142 192.01 721.019 209.441C723.368 223.666 728.677 235.505 738.629 248.71C750.02 263.837 761.101 269.811 789.073 275.921C803.259 279.027 809.551 281.276 816.48 285.757C829.746 294.308 840.764 313.242 839.189 324.753C837.723 335.49 832.806 340.763 824.219 340.836C818.829 340.881 814.795 339.333 807.192 334.297C798.888 328.796 785.103 322.704 774.868 320.017C770.215 318.797 766.118 318.533 755.747 318.797C727.793 319.516 723.65 319.352 720.791 317.422C715.474 313.815 714.217 304.827 717.541 294.153C718.551 290.893 719.862 283.626 720.445 277.989C721.456 268.308 721.401 267.37 719.453 260.758C715.164 246.151 708.198 237.773 692.428 228.247C673.671 216.899 666.997 212.073 663.209 207.1C661.051 204.286 660.696 202.948 660.678 197.757C660.659 193.276 661.16 190.754 662.608 188.058C665.112 183.377 674.654 174.124 685.635 165.746C701.433 153.679 709.309 144.326 709.309 137.624C709.309 133.116 705.931 127.069 700.814 122.415C698.228 120.056 694.713 116.869 693.011 115.321C689.514 112.161 686.591 106.423 686.564 102.653C686.528 98.382 688.84 94.293 695.151 87.3991C705.913 75.6785 707.689 68.9667 703.864 54.5778C701.524 45.7623 701.524 38.668 703.855 33.222C704.857 30.8725 708.672 24.789 712.323 19.7074C715.974 14.6348 720.3 8.11426 721.939 5.23648L724.925 0ZM235.356 398.737C225.65 402.508 213.931 401.806 204.416 396.87C192.297 390.587 184.621 380.469 180.787 365.679C175.688 346.054 186.205 319.125 201.63 312.294C210.899 308.196 223.947 309.098 237.65 314.781C252.62 320.992 263.537 322.603 274.527 320.227C286.956 317.54 294.049 313.069 307.698 299.29C318.452 288.434 323.323 285.62 331.436 285.547C341.16 285.475 347.826 291.012 347.826 299.19C347.826 308.77 343.164 313.314 323.023 323.405C301.206 334.324 297.619 337.138 285.499 352.893C268.053 375.578 263.501 380.706 254.495 387.909C248.741 392.508 242.941 395.787 235.356 398.737ZM0 486.036V396.406L4.31595 401.515C6.68335 404.329 13.1209 410.931 18.6023 416.186C50.9446 447.186 59.2396 456.994 67.5346 474.079C73.4349 486.237 75.5747 494.724 75.5747 505.926C75.5747 526.234 67.4982 538.21 39.6722 559.174C23.847 571.095 10.7535 582.788 4.67106 590.429L0 596.303V528.575L3.58752 525.068C5.55428 523.147 8.05826 519.477 9.15091 516.918C10.2345 514.359 12.0555 510.215 13.1846 507.711C19.9408 492.721 19.7132 472.257 12.6292 458.433C10.2162 453.725 1.87571 443.507 0.446164 443.507C0.200318 443.507 0 462.65 0 486.036ZM0 165.318L7.96721 170.281C22.2627 179.179 24.6756 181.683 29.0826 192.129C30.8399 196.291 31.1677 198.64 31.104 206.354C31.0403 214.395 30.6214 216.808 27.8534 224.959C23.5647 237.599 14.2408 252.271 3.75142 262.889L0 266.687V165.318ZM1201 205.816V368.53L1195.67 362.537C1182.35 347.538 1176.98 333.031 1180.4 321.256C1182.13 315.309 1188.83 304.9 1195.87 297.195L1201 291.594L1200.97 266.232L1200.94 240.878L1196.37 235.869C1189.99 228.893 1184.61 219.686 1184.61 215.752C1184.61 212.601 1186.36 209.104 1189.02 206.955C1189.79 206.326 1192.81 205.816 1195.71 205.816H1201ZM1201 452.559V514.987L1198.37 513.821C1194.34 512.036 1187.88 505.288 1185.44 500.325C1183.59 496.573 1183.24 494.515 1183.24 487.22C1183.24 479.106 1183.44 478.241 1186.25 473.259C1187.91 470.345 1191.9 464.489 1195.13 460.255L1201 452.559ZM0 721.723C0 722.98 0.35511 724 0.783063 724C1.22012 724 1.37491 722.98 1.12907 721.723C0.892328 720.466 0.537218 719.447 0.346005 719.447C0.154792 719.447 0 720.466 0 721.723Z" fill="#1E454A"/>
<path d="M0 721.723C0 720.466 0.154792 719.447 0.346005 719.447C0.537218 719.447 0.892328 720.466 1.12907 721.723C1.37491 722.98 1.22012 724 0.783063 724C0.35511 724 0 722.98 0 721.723ZM53.0935 721.013C51.4909 719.401 48.5681 715.576 46.5922 712.525C42.5039 706.187 39.5265 703.528 23.7924 692.208C17.6007 687.754 9.71544 681.58 6.2645 678.493L0 672.883V634.597V596.303L4.67106 590.429C10.7535 582.788 23.847 571.095 39.6722 559.174C67.4982 538.21 75.5747 526.234 75.5747 505.926C75.5747 494.724 73.4349 486.237 67.5346 474.079C59.2396 456.994 50.9446 447.186 18.6023 416.186C13.1209 410.931 6.68335 404.329 4.31595 401.515L0 396.406V331.546V266.687L3.75142 262.889C14.2408 252.271 23.5647 237.599 27.8534 224.959C30.6214 216.808 31.0403 214.395 31.104 206.354C31.1677 198.64 30.8399 196.291 29.0826 192.129C24.6756 181.683 22.2627 179.179 7.96721 170.281L0 165.318V82.6635V0H33.6262C65.8683 0 67.2797 0.0728553 67.8078 1.73031C68.1083 2.68654 69.902 5.85575 71.7868 8.78818C84.2521 28.1495 90.116 43.695 90.1342 57.4829C90.1433 64.6682 89.8701 65.8703 86.8927 71.8172C83.4964 78.62 76.8767 85.9147 60.7693 100.631C53.4031 107.352 52.793 108.181 52.8021 111.378C52.8112 113.764 53.4577 115.485 54.9146 116.933C57.5733 119.592 66.269 122.433 77.3958 124.291C93.312 126.95 96.9177 127.743 107.444 130.885C125.754 136.349 132.866 141.43 138.129 152.787C144.949 167.467 144.111 182.466 135.251 204.906C130.507 216.918 120.965 235.824 116.176 242.699C106.651 256.378 100.041 262.316 79.6812 275.484C50.2981 294.49 38.0241 315.473 37.8511 346.974C37.7782 361.508 39.5174 369.258 45.9731 383.082C54.5048 401.333 63.4372 410.731 100.159 440.064C127.038 461.539 133.594 467.549 143.118 479.479C157.013 496.883 169.378 533.183 169.342 556.433C169.315 569.993 164.27 583.134 156.522 589.846C151.823 593.917 147.097 595.665 136.125 597.396C127.703 598.725 121.056 602.049 115.274 607.841C99.7222 623.387 96.1164 647.702 104.302 681.653C106.096 689.048 106.305 701.706 104.748 707.608C104.156 709.857 102.035 714.474 100.05 717.853L96.4351 724L76.2212 723.973L55.9981 723.945L53.0935 721.013ZM233.098 715.84C233.098 705.121 235.747 693.965 240.874 683.155C243.105 678.447 250.826 665.734 258.028 654.897C274.072 630.8 274.154 630.654 283.669 611.53C294.067 590.647 298.21 576.859 299.248 559.72C299.886 549.038 298.083 538.082 294.377 530.214C289.497 519.832 274.345 507.31 258.902 500.88C216.799 483.368 183.382 462.076 134.641 421.696C125.8 414.383 106.16 393.829 101.662 387.199C96.1437 379.066 91.3179 368.092 90.553 361.936C89.0962 350.279 95.8706 334.98 106.861 325.117C111.067 321.347 121.138 314.207 134.213 305.747C135.16 305.127 139.057 302.049 142.863 298.898C157.915 286.431 163.915 275.211 163.888 259.584C163.87 251.442 162.231 243.974 157.96 232.563C153.517 220.697 151.723 209.578 152.97 201.582C154.646 190.808 159.107 179.78 166.191 168.933C174.059 156.867 175.142 144.463 169.132 135.402C167.375 132.752 164.143 128.817 161.957 126.668C157.068 121.86 143.555 112.853 132.165 106.815C110.995 95.5953 104.584 83.556 111.732 68.4749C113.744 64.2402 125.618 52.3101 135.67 44.4235C151.996 31.6192 157.077 26.7015 162.222 18.7694C166.055 12.859 167.53 8.60604 167.53 3.41509L167.539 0H195.802H224.065L221.07 5.54611C219.422 8.59693 214.568 14.8443 210.28 19.4342C205.991 24.024 200.373 30.0255 197.805 32.7849C183.674 47.8933 178.802 58.9764 182.435 67.6917C186.715 77.9188 211.554 87.217 238.752 88.7651C258.165 89.8762 270.821 93.4552 276.831 99.5477C281.866 104.657 283.569 108.937 283.605 116.596C283.633 122.798 283.341 123.945 280.601 128.435C275.957 136.076 269.683 140.338 242.203 154.544C223.528 164.198 213.931 170.591 206.419 178.368C197.687 187.42 196.212 190.726 196.248 201.263C196.267 207.137 196.804 211.444 197.915 214.677C200.437 222.054 210.498 238.201 222.599 254.311C228.536 262.225 241.265 269.738 256.317 274.228C262.499 276.067 265.54 276.395 276.348 276.386C294.778 276.359 306.797 273.089 333.257 260.877C344.866 255.513 351.978 253.764 359.08 254.52C373.193 256.023 382.626 261.924 388.099 272.661C390.375 277.133 391.003 279.637 391.322 285.502C392.014 298.334 387.07 307.176 369.788 324.042C363.469 330.208 355.064 338.404 351.113 342.256C329.415 363.384 319.171 380.296 310.758 408.901C308.7 415.886 308.436 418.7 308.017 437.678C307.288 470.8 311.386 493.549 321.575 512.965C327.393 524.039 341.971 535.824 353.589 538.838C356.066 539.476 363.869 540.414 370.944 540.914C391.076 542.344 398.761 545.34 409.187 555.823C412.756 559.42 417.691 565.175 420.141 568.636C424.183 574.337 433.198 591.085 435.875 597.869C436.467 599.372 438.561 604.699 440.528 609.708C443.787 617.995 447.001 628.186 450.334 640.854C455.925 662.109 461.643 699.384 461.643 714.665V724L418.165 723.973L374.687 723.936L371.154 716.632C368.668 711.496 365.827 707.489 361.593 703.145C339.221 680.214 308.581 687.773 300.004 718.345L298.42 724H265.759H233.098V715.84ZM235.356 398.737C242.941 395.787 248.741 392.508 254.495 387.909C263.501 380.706 268.053 375.578 285.499 352.893C297.619 337.138 301.206 334.324 323.023 323.405C343.164 313.314 347.826 308.77 347.826 299.19C347.826 291.012 341.16 285.475 331.436 285.547C323.323 285.62 318.452 288.434 307.698 299.29C294.049 313.069 286.956 317.54 274.527 320.227C263.537 322.603 252.62 320.992 237.65 314.781C223.947 309.098 210.899 308.196 201.63 312.294C186.205 319.125 175.688 346.054 180.787 365.679C184.621 380.469 192.297 390.587 204.416 396.87C213.931 401.806 225.65 402.508 235.356 398.737ZM479.417 714.21C468.927 672.682 460.741 623.35 458.447 587.852C456.435 556.761 453.302 544.575 444.561 533.811C436.257 523.575 426.496 519.286 393.507 511.363C381.561 508.494 374.331 504.696 367.193 497.502C360.81 491.081 357.004 484.26 353.981 473.833C352.269 467.913 351.941 464.68 352.014 454.435C352.151 436.121 356.348 422.06 366.829 404.802C373.503 393.801 381.607 384.348 400.728 365.251C422.808 343.203 429.173 334.233 434.727 317.34C439.963 301.393 440.792 283.963 436.995 269.738C433.735 257.562 428.891 249.684 416.726 236.78C412.237 232.017 406.546 225.46 404.07 222.209C395.356 210.734 388.8 192.93 388.8 180.699C388.8 169.962 395.884 147.86 404.097 132.961C413.193 116.468 414.495 109.565 410.234 100.422C406.483 92.3441 399.863 90.1403 389.018 93.3641C382.982 95.1582 373.384 101.642 371.236 105.376C370.307 106.988 368.395 114.01 366.974 120.985C364.771 131.85 363.724 134.937 359.699 142.541C351.705 157.632 351.695 164.216 359.654 179.834C366.055 192.42 367.293 196.691 366.628 203.858C365.654 214.313 360.346 222.3 352.56 225.014C350.366 225.779 348.627 225.688 344.885 224.595C338.52 222.746 333.184 219.112 322.003 209.013C308.764 197.055 305.058 189.479 305.039 174.361C305.03 163.888 306.606 157.932 312.733 145.346C315.438 139.791 318.151 133.262 318.752 130.839C320.364 124.4 319.308 113.755 316.321 106.168C312.096 95.4405 291.39 65.67 276.367 48.722C269.51 40.9902 262.19 30.8087 259.221 24.8801C255.379 17.2212 254.705 14.0155 255.388 6.74823L256.016 0H327.876C367.393 0 399.735 0.309635 399.754 0.683019C400.172 10.9283 403.678 21.6107 408.24 26.6013C413.621 32.4753 431.158 41.054 447.53 45.8169C454.504 47.8386 468.354 53.3574 473.216 56.0349C489.214 64.8686 491.572 77.4908 479.535 89.9855C477.459 92.1529 470.949 97.1526 465.076 101.105C448.677 112.133 444.671 115.312 441.702 119.619C437.168 126.213 435.738 130.839 435.747 138.88C435.756 152.095 442.285 164.425 457.318 179.625C486.756 209.386 491.49 215.57 498.265 233.137C501.197 240.723 501.251 241.16 501.251 255.449C501.242 269.583 501.151 270.275 498.237 278.653C492.556 294.964 486.464 303.616 468.672 320.682C454.604 334.16 448.823 341.437 443.969 351.718C439.917 360.288 438.561 367.1 439.08 376.225C439.553 384.467 441.802 388.975 448.686 395.413C458.838 404.912 464.529 406.305 496.243 407.052C521.201 407.644 521.301 407.653 527.475 410.276C538.857 415.112 543.582 420.867 547.725 434.965C551.641 448.279 549.819 457.641 541.543 466.73C537.208 471.483 536.781 471.738 517.714 480.918C499.722 489.57 494.532 496.008 493.703 510.68C493.202 519.623 494.404 524.832 498.611 531.89C501.078 536.033 503.045 537.855 509.428 541.907C534.868 558.081 535.852 558.882 539.776 566.323C546.414 578.927 546.114 595.802 539.039 607.286C535.615 612.841 530.088 616.893 516.557 623.751C503.846 630.199 497.427 634.643 494.322 639.187C492.528 641.801 492.146 643.504 492.146 648.85C492.146 654.496 492.583 656.217 495.506 662.118C499.794 670.77 507.079 679.576 515.975 686.853C534.185 701.752 538.629 707.726 540.423 719.711L541.069 724H511.477H481.884L479.417 714.21ZM624.247 719.674C626.032 707.626 630.976 698.81 641.875 688.255C664.848 666.016 666.978 662.856 666.951 651.145C666.942 646.3 666.45 643.422 665.276 641.236C662.271 635.672 648.085 622.412 635.556 613.469C632.296 611.147 626.541 607.04 622.754 604.344C605.135 591.795 595.201 574.273 599.061 562.58C599.635 560.831 603.787 555.404 608.367 550.413C624.174 533.192 631.695 521.708 636.348 507.711C642.376 489.57 642.567 466.292 636.794 452.158C626.469 426.841 614.449 416.396 581.679 404.293C567.32 398.992 556.876 392.49 554.099 387.117C552.078 383.201 551.413 375.906 552.724 371.89C554.072 367.756 557.75 362.118 563.623 355.17C573.903 343.021 582.735 326.683 591.222 304.171C597.55 287.36 599.089 271.149 595.155 262.698C590.939 253.637 584.01 250.44 568.595 250.44C557.687 250.44 550.32 249.22 547.889 247.016C540.942 240.732 542.28 228.402 551.704 211.872C556.894 202.756 564.306 185.244 565.781 178.614C567.493 170.882 567.648 165.281 566.346 158.424C563.878 145.401 557.723 138.298 536.307 123.79C524.843 116.022 517.687 108.955 516.33 104.083C513.926 95.4041 515.784 90.8415 527.894 75.7696C533.029 69.3765 534.486 65.5971 534.486 58.6668C534.486 48.5581 528.968 37.6389 513.826 17.7585C509.41 11.9665 504.648 5.70093 503.236 3.84312L500.659 0.455346L524.516 0.209459C551.695 -0.0637484 548.882 -0.901585 553.662 8.89746C557.85 17.4671 559.389 23.4048 559.417 30.9635C559.444 40.7079 557.732 48.3486 551.449 66.4805C546.15 81.8074 545.931 82.7637 545.904 91.6065C545.868 100.723 545.895 100.823 549.291 105.95C552.77 111.186 557.841 115.53 562.968 117.67C564.525 118.317 569.888 120.812 574.887 123.217C591.868 131.395 594.663 135.101 595.274 150.264C595.638 159.162 595.474 160.327 592.933 167.112C591.431 171.119 588.945 177.166 587.416 180.554C575.961 205.889 579.203 219.094 599.134 228.329C602.886 230.068 608.531 232.691 611.672 234.157C619.284 237.7 624.147 242.672 625.94 248.737C628.572 257.58 627.853 265.412 622.435 286.904C612.556 326.101 610.489 340.48 611.263 364.687C611.854 383.556 613.357 391.115 618.538 401.406C624.984 414.228 628.353 418.891 641.11 432.679C652.428 444.918 655.915 449.927 659.913 459.69C666.642 476.137 664.238 486.874 646.892 517.92C641.228 528.046 640.655 533.283 644.534 539.303C648.513 545.477 656.38 551.305 664.028 553.71C679.599 558.627 692.483 557.79 706.341 550.95C718.214 545.085 722.922 537.408 721.629 525.979C720.7 517.728 718.224 511.572 705.977 487.038C699.794 474.653 694.741 464.28 694.741 463.988C694.741 463.697 692.856 459.48 690.552 454.617C668.936 409.046 662.899 388.483 666.514 372.801C668.098 365.934 672.688 357.501 680.582 346.937C693.056 330.244 697.181 320.946 699.275 304.79C701.87 284.81 699.139 263.245 692.209 249.074C691.226 247.071 689.66 243.792 688.731 241.789C686.774 237.59 677.331 227.846 673.325 225.897C671.832 225.169 669.792 223.894 668.79 223.074C665.795 220.624 657.527 216.162 640.864 208.02C625.485 200.498 620.104 193.14 620.086 179.607C620.077 171.128 621.37 166.511 628.044 151.175C633.307 139.081 634.163 131.404 631.049 124.155C627.425 115.74 620.896 111.878 598.224 104.748C591.741 102.708 590.757 102.079 587.06 97.5988C585.076 95.1946 584.566 93.6373 584.566 90.031C584.566 84.6488 585.148 83.4376 591.631 75.296C599.189 65.8066 600.937 62.2822 600.937 56.4629C600.937 50.7437 599.07 46.1721 592.187 35.0343C584.393 22.4394 580.923 12.9409 580.923 4.19829V0L597.086 0.0455346L613.248 0.0819623L616.352 6.64805C620.923 16.2923 622.89 23.341 623.008 30.5082C623.163 39.9885 621.852 43.5037 609.414 66.8994C606.091 73.1377 605.563 78.192 608.012 80.3594C608.886 81.1426 613.666 83.7108 618.638 86.0695C626.159 89.6394 628.836 91.5154 634.627 97.3165C643.049 105.74 646.637 112.48 647.22 120.985C647.593 126.486 647.393 127.215 642.922 136.076C634.764 152.249 635.492 155.728 647.029 155.728C651.9 155.728 655.424 155.091 660.295 153.333C668.408 150.41 681.301 141.895 686.409 136.094C689.76 132.287 690.188 131.276 690.188 127.278C690.188 122.98 689.897 122.443 684.324 116.432C676.521 107.999 674.463 103.573 673.971 94.1473C673.452 84.2663 675.41 75.724 681.784 60.1512C693.111 32.4206 696.58 20.9732 697.973 6.60252L698.62 0H711.768H724.925L721.939 5.23648C720.3 8.11426 715.974 14.6348 712.323 19.7074C708.672 24.789 704.857 30.8725 703.855 33.222C701.524 38.668 701.524 45.7623 703.864 54.5778C707.689 68.9667 705.913 75.6785 695.151 87.3991C688.84 94.293 686.528 98.382 686.564 102.653C686.591 106.423 689.514 112.161 693.011 115.321C694.713 116.869 698.228 120.056 700.814 122.415C705.931 127.069 709.309 133.116 709.309 137.624C709.309 144.326 701.433 153.679 685.635 165.746C674.654 174.124 665.112 183.377 662.608 188.058C661.16 190.754 660.659 193.276 660.678 197.757C660.696 202.948 661.051 204.286 663.209 207.1C666.997 212.073 673.671 216.899 692.428 228.247C708.198 237.773 715.164 246.151 719.453 260.758C721.401 267.37 721.456 268.308 720.445 277.989C719.862 283.626 718.551 290.893 717.541 294.153C714.217 304.827 715.474 313.815 720.791 317.422C723.65 319.352 727.793 319.516 755.747 318.797C766.118 318.533 770.215 318.797 774.868 320.017C785.103 322.704 798.888 328.796 807.192 334.297C814.795 339.333 818.829 340.881 824.219 340.836C832.806 340.763 837.723 335.49 839.189 324.753C840.764 313.242 829.746 294.308 816.48 285.757C809.551 281.276 803.259 279.027 789.073 275.921C761.101 269.811 750.02 263.837 738.629 248.71C728.677 235.505 723.368 223.666 721.019 209.441C718.142 192.01 725.99 173.696 742.662 158.952C759.252 144.281 763.241 138.707 763.168 130.274C763.122 124.546 761.438 121.341 756.384 117.406C750.757 113.026 747.934 109.429 746.751 105.176C744.529 97.1799 746.05 88.5648 751.631 77.4088C756.202 68.2746 759.389 58.1204 759.389 52.6653C759.389 49.7875 758.269 44.2687 756.657 39.1597C752.915 27.3116 752.942 20.8913 756.785 13.0866C758.351 9.89922 761.419 5.64629 763.587 3.64277L767.547 0H829.482C863.545 0 891.417 0.245887 891.417 0.537308C891.417 0.82873 886.373 6.0561 880.199 12.1486C859.33 32.7576 852.865 42.2015 850.425 55.6615C847.811 70.0777 852.51 83.5833 865.731 99.6388C875.127 111.05 889.614 123.116 901.014 129.036C909.573 133.471 924.57 139.791 929.951 141.23C938.911 143.616 955.3 150.874 963.031 155.874C979.211 166.338 993.853 184.807 1000.63 203.294C1005.79 217.364 1008.42 230.66 1011.58 258.636C1015.17 290.465 1013.54 306.657 1005.17 322.367C998.87 334.178 988.134 343.003 965.225 355.161C943.272 366.818 933.657 374.65 928.531 385.077C925.671 390.878 925.562 391.525 925.571 402.052C925.59 414 926.063 416.04 931.544 427.716C938.018 441.512 950.593 452.213 980.65 469.489C1001.23 481.319 1009.91 487.976 1018.66 498.604C1022.5 503.276 1031.64 517.328 1031.64 518.557C1031.64 518.785 1032.88 521.644 1034.4 524.923C1040.5 538.119 1043.51 558.591 1041.76 574.983C1038.82 602.313 1029.57 624.361 1011.81 646.364C999.534 661.572 993.98 665.998 965.69 683.092C948.453 693.51 939.22 702.499 932.801 715.121L928.294 723.991L873.871 724H819.448L820.031 721.496C821.133 716.778 824.074 710.941 827.461 706.77C835.492 696.87 843.331 692.681 875.483 681.097C912.359 667.819 925.061 659.086 925.289 646.855C925.444 638.723 922.794 635.025 905.703 619.489C903.354 617.358 901.433 614.99 901.433 614.225C901.433 611.994 904.246 611.548 907.279 613.296C927.32 624.871 945.421 630.235 958.396 628.423C967.274 627.193 973.42 623.997 980.195 617.085C988.954 608.16 993.798 597.468 996.511 581.076C1000.75 555.44 998.114 536.844 988.162 522.409C979.712 510.151 969.031 501.964 939.503 485.135C920.964 474.562 914.59 470.054 906.814 462.003C892.109 446.794 885.061 431.14 884.97 413.472C884.907 400.85 887.037 392.472 893.247 380.906C901.815 364.978 914.144 351.864 936.944 334.47C954.599 320.992 965.735 307.996 970.816 294.909C976.097 281.34 972.846 239.53 965.052 220.633C962.093 213.475 961.283 211.918 957.085 205.361C935.66 171.866 882.785 146.066 827.352 142.059C795.264 139.737 770.461 146.512 757.258 161.211C751.932 167.148 749.155 172.439 746.423 181.856C743.518 191.892 743.546 212.009 746.487 222.491C750.202 235.705 757.185 246.916 766.491 254.602C773.193 260.121 787.716 267.625 796.266 269.975C807.183 272.971 825.631 279.901 835.419 284.673C850.015 291.795 855.97 297.778 860.094 309.48C864.292 321.374 862.444 336.41 855.514 346.655C847.848 357.993 829.892 367.919 817.072 367.919C811.016 367.919 809.132 366.981 800.126 359.477C787.998 349.387 771.454 338.668 760.573 333.85C748.681 328.587 743.282 327.403 731.162 327.394C721.21 327.394 719.316 327.64 716.075 329.379C707.834 333.787 699.831 347.092 696.99 361.089C694.932 371.207 694.905 391.388 696.926 402.526C699.312 415.658 703.518 428.827 708.153 437.587C715.046 450.638 716.475 452.96 736.207 483.122C742.38 492.557 745.913 499.697 748.836 508.64C754.017 524.513 750.466 535.414 735.706 548.947C728.513 555.531 721.92 559.857 708.308 566.924C699.548 571.468 696.717 573.526 690.161 580.083C681.338 588.908 676.548 597.004 674.172 607.076C671.914 616.666 672.824 637.102 675.965 647.693C679.407 659.277 685.399 672.254 691.854 682.108C701.725 697.162 705.949 707.143 707.962 720.13L708.563 724H666.086H623.609L624.247 719.674ZM1090.02 721.969C1090.62 720.858 1093.67 716.25 1096.79 711.724C1102.93 702.845 1110.39 687.946 1113.46 678.465C1118.74 662.128 1120.21 643.039 1117.77 622.458C1116.12 608.579 1114.07 600.1 1107.01 577.834C1102.27 562.926 1092.17 541.434 1082.23 525.114C1079.82 521.162 1074.84 511.945 1071.18 504.623C1064.13 490.544 1060.25 478.204 1057.96 462.549C1056.6 453.142 1056.61 427.57 1057.99 417.097C1058.56 412.844 1059.62 404.238 1060.37 397.972C1062.11 383.292 1064.34 371.854 1068.99 353.804C1075.24 329.525 1075.96 327.066 1081.76 310.546C1096.24 269.201 1097.86 252.508 1090.86 217.054C1087.66 200.871 1087.1 199.123 1079.89 182.484C1073.22 167.121 1067.88 158.105 1059.88 148.725C1052.56 140.146 1047.32 135.757 1038.18 130.548C1026.09 123.654 1020.16 122.242 998.861 121.149C967.074 119.528 960.418 117.024 954.681 104.493C951.458 97.4622 950.766 86.0513 951.076 45.0792L951.312 13.205L953.798 6.60252L956.275 0H982.125C996.338 0 1007.97 0.35517 1007.97 0.792302C1007.97 1.62103 1005.07 5.57343 1002.2 8.65157C997.276 13.9427 994.845 18.7056 994.481 23.7326C994.044 29.7523 995.501 33.1674 1000.65 38.2126C1004.32 41.819 1010.45 44.1321 1023.61 46.8915C1034.39 49.1591 1039.17 53.5396 1037.61 59.7414C1037.3 61.0072 1033.76 65.4514 1029.75 69.6315C1024.21 75.4053 1022.32 78.019 1021.92 80.496C1020.91 86.707 1025.56 90.3771 1038.1 93.3004C1045.5 95.0125 1059.28 100.896 1067.58 105.868C1075.24 110.458 1091.47 126.331 1096.93 134.564C1103.69 144.745 1108.13 159.699 1108.13 172.276C1108.13 176.683 1107.26 185.726 1106.2 192.375C1103.44 209.65 1104.36 216.38 1110.29 222.309C1111.59 223.593 1117.32 227.8 1123.05 231.653C1134.45 239.302 1138.39 243.173 1141.19 249.484C1147.18 263.008 1141.35 284.955 1127.46 301.22C1124.15 305.091 1121.55 306.949 1115.02 310.091C1102.97 315.883 1098.11 321.511 1098.11 329.643C1098.12 334.26 1098.8 335.936 1106.29 349.706C1115.38 366.417 1123.06 382.919 1126.78 393.728C1130.17 403.6 1133.62 421.577 1133.61 429.318C1133.57 446.922 1125.44 461.52 1111.28 469.443C1103.62 473.733 1097.71 480.39 1096.28 486.337C1093.89 496.309 1096.58 501.882 1114.81 524.704C1128.78 542.171 1128.89 542.317 1136.74 553.901C1148.28 570.913 1155.64 585.666 1160.53 601.603C1163.44 611.102 1163.91 613.961 1164.33 624.735C1164.69 634.015 1164.44 638.814 1163.33 644.314C1162.52 648.321 1161.51 654.824 1161.1 658.776C1160.24 667.036 1160.85 668.129 1167.92 670.834C1170.09 671.663 1171.86 672.682 1171.86 673.101C1171.86 673.52 1169.61 674.923 1166.85 676.225C1161.18 678.912 1161.03 679.422 1163.33 687.436C1166.94 699.949 1175.84 711.596 1187.57 719.128C1190.95 721.304 1193.72 723.281 1193.72 723.536C1193.72 723.791 1170.14 724 1141.32 724H1088.94L1090.02 721.969ZM1195 572.206C1189.2 565.64 1179.98 556.633 1171.68 549.429C1165.32 543.902 1133.98 520.251 1124.21 513.594C1115.67 507.793 1112.68 504.195 1112.68 499.797C1112.68 495.079 1116.84 490.016 1126.7 482.74C1136.57 475.445 1149.14 461.857 1153.39 453.88C1160.66 440.228 1163.31 424.692 1160.52 412.124C1158.34 402.353 1155.29 395.978 1145.44 380.651C1132.22 360.097 1126.34 346.345 1126.34 336C1126.34 330.526 1126.78 328.978 1130.42 321.793C1135.15 312.467 1143.98 301.084 1156.34 288.416C1169.37 275.038 1172.76 268.891 1172.76 258.636C1172.76 250.395 1168.83 245.222 1155.93 236.507C1139.46 225.387 1133.96 218.111 1134.22 207.774C1134.6 192.438 1151.95 174.835 1171.41 170.017C1174.41 169.27 1182.3 168.451 1188.94 168.177L1201 167.704V186.756V205.816H1195.71C1192.81 205.816 1189.79 206.326 1189.02 206.955C1186.36 209.104 1184.61 212.601 1184.61 215.752C1184.61 219.686 1189.99 228.893 1196.37 235.869L1200.94 240.878L1200.97 266.232L1201 291.594L1195.87 297.195C1188.83 304.9 1182.13 315.309 1180.4 321.256C1176.98 333.031 1182.35 347.538 1195.67 362.537L1201 368.53V410.549V452.559L1195.13 460.255C1191.9 464.489 1187.91 470.345 1186.25 473.259C1183.44 478.241 1183.24 479.106 1183.24 487.22C1183.24 494.515 1183.59 496.573 1185.44 500.325C1187.88 505.288 1194.34 512.036 1198.37 513.821L1201 514.987V546.634C1201 564.046 1200.86 578.289 1200.69 578.289C1200.52 578.289 1197.96 575.548 1195 572.206ZM0 486.036C0 462.65 0.200318 443.507 0.446164 443.507C1.87571 443.507 10.2162 453.725 12.6292 458.433C19.7132 472.257 19.9408 492.721 13.1846 507.711C12.0555 510.215 10.2345 514.359 9.15091 516.918C8.05826 519.477 5.55428 523.147 3.58752 525.068L0 528.575V486.036ZM1145 149.399C1142 148.998 1137.19 147.778 1134.33 146.685C1129.31 144.764 1118.14 137.341 1118.14 135.921C1118.13 135.547 1116.95 133.972 1115.5 132.433C1111.59 128.262 1109.18 122.934 1105.74 110.84C1104.02 104.821 1101.51 98.2728 1100.11 96.1964C1096.94 91.4699 1089.79 87.1168 1080.35 84.1843C1067.8 80.2775 1064.99 76.0974 1065.08 61.4717C1065.12 54.7508 1065.65 50.8257 1067.08 46.4817C1069.55 38.9685 1077.5 24.7344 1085.4 13.6604C1088.79 8.89746 1092.08 3.87955 1092.71 2.5044L1093.85 0H1147.42H1201L1200.95 61.244L1200.9 122.488L1191.16 130.967C1180.3 140.41 1174.43 144.09 1165.03 147.295C1157.55 149.854 1152.5 150.383 1145 149.399Z" fill="#3D5F63"/>
</g>
<path d="M1068.58 639.549C1065.89 638.091 1063.22 634.805 1063.22 632.966C1063.22 631.564 1069.77 632.439 1071.08 634.009C1072.75 636.027 1079.05 636.24 1080.95 634.345C1081.69 633.605 1082.3 631.564 1082.3 629.814C1082.3 627.022 1082.04 626.775 1080.13 627.796C1077.34 629.287 1070.42 629.299 1067.64 627.807C1060.38 623.915 1060.56 610.088 1067.96 604.918C1070.82 602.922 1076.93 602.619 1080.13 604.335C1081.62 605.131 1082.3 605.131 1082.3 604.335C1082.3 603.696 1083.81 603.169 1085.66 603.169H1089.03V617.018C1089.03 624.633 1088.49 632.416 1087.83 634.311C1085.7 640.435 1075.38 643.238 1068.58 639.549ZM1080.24 622.626C1083.09 620.046 1082.98 612.824 1080.05 609.897C1077.09 606.937 1074.92 607.071 1071.58 610.402C1064.62 617.366 1072.99 629.175 1080.24 622.626ZM878.063 638.068C878.063 636.644 879.118 635.758 881.34 635.321C886.659 634.255 886.592 631.373 880.947 617.433C878.131 610.469 875.819 604.413 875.819 603.976C875.819 603.527 877.267 603.169 879.04 603.169C882.036 603.169 882.462 603.763 885.369 611.86C887.074 616.637 888.847 620.966 889.296 621.46C889.734 621.964 891.563 618.185 893.336 613.049C896.478 604.032 896.703 603.718 900.383 603.37C903.177 603.101 904.019 603.393 903.581 604.492C903.256 605.299 900.361 612.533 897.151 620.551C890.317 637.62 888.387 640.177 882.361 640.177C878.905 640.177 878.063 639.762 878.063 638.068ZM765.342 629.366C763.041 628.099 761.897 627.919 761.594 628.805C761.358 629.512 759.955 630.084 758.463 630.084H755.747V611.579V593.075H759.114C762.447 593.075 762.48 593.131 762.48 599.288C762.48 605.075 762.626 605.411 764.646 604.335C768.192 602.439 774.286 602.978 777.45 605.467C789.143 614.663 778.101 636.442 765.342 629.366ZM773.623 622.648C776.766 618.645 776.597 613.811 773.197 610.402C769.988 607.195 768.394 607.004 764.972 609.404C762.974 610.794 762.48 612.23 762.48 616.626C762.48 621.022 762.974 622.458 764.972 623.848C768.551 626.36 770.964 626.013 773.623 622.648ZM792.016 630.072C787.101 628.099 785.541 620.686 789.311 617.276C790.49 616.211 794.282 614.955 797.728 614.484C804.943 613.508 806.065 612.779 804.404 610.122C802.811 607.576 797.974 607.105 795.809 609.28C793.845 611.232 788.29 611.658 788.29 609.841C788.29 609.202 789.525 607.43 791.039 605.916C794.743 602.226 804.438 601.991 808.904 605.49C811.743 607.722 811.856 608.26 811.856 618.947V630.084H808.489C806.638 630.084 805.123 629.601 805.123 629.018C805.123 628.435 803.372 628.682 801.229 629.579C796.841 631.407 795.506 631.485 792.016 630.072ZM803.956 623.433C805.538 620.484 805.426 617.747 803.72 617.759C799.489 617.77 793.901 620.248 793.901 622.099C793.901 624.936 794.889 625.598 799.097 625.598C801.61 625.598 803.17 624.902 803.956 623.433ZM853.679 629.545C849.448 627.706 845.532 621.886 845.521 617.433C845.521 612.97 848.214 607.127 851.266 604.996C854.217 602.933 863.543 602.529 866.909 604.324C869.782 605.86 872.453 611.221 872.453 615.449V618.869H862.353C851.76 618.869 850.649 619.508 854.498 623.355C857.157 626.013 863.251 626.36 864.193 623.916C864.564 622.94 866.247 622.233 868.166 622.233C872.621 622.233 872.06 625.205 866.954 628.637C862.622 631.564 858.897 631.811 853.679 629.545ZM865.72 613.071C865.72 610.75 862.084 607.654 859.379 607.654C856.417 607.654 851.816 611.635 852.837 613.306C853.825 614.899 865.72 614.686 865.72 613.071ZM975.422 629.444C971.326 627.235 968.959 622.345 968.959 616.144C968.959 606.925 977.947 600.645 986.891 603.606C990.998 604.974 995.475 610.077 994.275 612.028C993.332 613.553 988.035 613.677 988.035 612.163C988.035 611.568 986.812 610.267 985.309 609.28C983.064 607.811 982.11 607.744 979.978 608.865C976.354 610.772 975.725 612.017 975.714 617.4C975.692 621 976.275 622.514 978.183 623.848C981.538 626.203 984.22 626.046 986.913 623.355C989.079 621.19 994.768 620.203 994.768 621.987C994.768 623.848 991.11 627.93 988.024 629.534C983.951 631.631 979.395 631.597 975.422 629.444ZM1036.65 630.072C1032.74 628.502 1031.8 625.351 1031.8 613.901V603.169H1035.12H1038.44L1038.77 613.463C1039.09 623.702 1039.12 623.758 1042.26 624.6C1044.66 625.239 1045.94 624.925 1047.59 623.276C1049.37 621.493 1049.75 619.508 1049.75 612.14V603.169H1053.12H1056.49V616.626V630.084H1053.12C1051.27 630.084 1049.75 629.568 1049.75 628.928C1049.75 628.278 1048.34 628.513 1046.44 629.489C1042.76 631.396 1040.28 631.541 1036.65 630.072ZM818.835 616.906L819.15 603.729L822.236 603.37L825.322 603.023V616.548V630.084H821.921H818.521L818.835 616.906ZM833.177 611.579V593.075H836.543H839.91V611.579V630.084H836.543H833.177V611.579ZM924.072 616.626V603.169H927.439C929.818 603.169 930.805 603.707 930.805 605.019C930.805 606.746 930.951 606.746 932.859 605.019C935.428 602.697 942.408 602.608 944.293 604.884C945.573 606.41 945.909 606.41 947.604 604.884C950.465 602.294 958.062 602.675 960.655 605.524C962.383 607.43 962.865 609.998 963.168 618.981L963.561 630.084H960.082H956.615V620.775C956.615 610.862 955.706 608.776 951.386 608.776C947.727 608.776 946.515 611.961 946.515 621.594C946.515 629.904 946.459 630.084 943.71 630.084C940.961 630.084 940.905 629.904 940.905 621.594C940.905 611.961 939.693 608.776 936.034 608.776C931.714 608.776 930.805 610.862 930.805 620.775V630.084H927.439H924.072V616.626ZM1000.38 611.579V593.075H1003.75H1007.11V599.972C1007.11 606.589 1007.2 606.802 1009.17 605.019C1011.23 603.157 1016.61 602.574 1019.97 603.864C1023.43 605.198 1025.07 610.514 1025.07 620.495V630.084H1021.7H1018.33V620.775C1018.33 610.671 1017.45 608.776 1012.72 608.776C1008 608.776 1007.11 610.671 1007.11 620.775V630.084H1003.75H1000.38V611.579ZM1096.5 629.242C1096.21 628.783 1095.91 620.45 1095.82 610.738L1095.66 593.075H1099.08C1102.49 593.075 1102.5 593.109 1102.5 599.367C1102.5 604.929 1102.72 605.557 1104.46 604.795C1109.15 602.731 1114.29 602.978 1117.38 605.4C1120.36 607.744 1120.45 608.148 1120.45 618.947V630.084H1117.13H1113.81L1113.48 619.71L1113.16 609.337L1109.97 608.978C1104.28 608.316 1102.5 611.254 1102.5 621.28C1102.5 629.871 1102.43 630.084 1099.76 630.084C1098.25 630.084 1096.78 629.702 1096.5 629.242ZM819.991 599.064C817.837 598.189 818.331 594.421 820.754 593.12C822.393 592.245 823.358 592.391 824.682 593.715C826.006 595.038 826.152 596.002 825.277 597.64C824.132 599.782 822.718 600.163 819.991 599.064ZM771.244 564.613C759.383 561.102 759.114 560.788 759.114 550.886C759.114 540.972 760.775 540.053 764.276 548.026C769.18 559.185 783.487 566.485 788.851 560.553C790.591 558.635 791.174 556.123 791.488 549.394C791.859 541.051 791.758 540.602 788.818 538.292C785.776 535.903 781.703 534.546 773.197 533.088C770.19 532.572 767.384 530.958 764.5 528.064C760.584 524.15 760.236 523.298 760.236 517.545C760.236 512.095 760.696 510.76 763.861 507.16C768.686 501.676 773.119 499.994 782.78 499.994C789.064 499.994 792.263 500.644 797.458 502.977L804.09 505.949L803.765 513.261C803.406 521.425 801.7 523.231 799.467 517.825C796.28 510.143 787.617 503.358 780.985 503.358C774.274 503.358 769.651 514.113 772.569 522.939C774.252 528.042 776.799 529.679 786.607 531.922C796.695 534.243 802.463 538.169 804.18 543.888C806.772 552.546 801.251 562.347 792.005 565.499C785.148 567.831 781.636 567.685 771.244 564.613ZM486.147 565.543C485.687 565.061 485.306 550.37 485.306 532.886V501.115L498.491 501.138C519.161 501.183 524.582 504.861 524.582 518.857C524.582 523.915 524.02 526.203 522.203 528.502L519.824 531.53L522.124 533.986C527.387 539.593 528.24 548.307 524.301 556.09C520.474 563.637 517.029 565.061 500.803 565.801C493.206 566.149 486.607 566.037 486.147 565.543ZM506.537 562.089C510.779 561.237 512.776 557.884 513.876 549.776C515.167 540.221 511.138 533.638 503.99 533.638C497.795 533.638 497.65 533.974 497.65 548.239C497.65 563.379 497.919 563.805 506.537 562.089ZM509.915 528.445C511.766 526.079 512.238 523.881 512.238 517.478C512.238 506.745 510.655 504.48 503.193 504.48H497.65V517.186C497.65 524.184 497.986 530.24 498.401 530.644C498.805 531.058 501.05 531.395 503.361 531.395C506.593 531.395 508.131 530.7 509.915 528.445ZM530.854 565.196C530.529 564.669 531.449 560.508 532.897 555.944C534.344 551.379 538.193 539.077 541.448 528.591C549.393 502.966 550.717 499.994 554.195 499.994C557.629 499.994 559.975 502.248 561.456 506.992C574.854 549.955 578.445 562.056 578.445 564.377C578.445 565.768 577.222 566.16 572.812 566.16C566.506 566.16 566.82 566.53 563.105 554.385L561.052 547.656L550.144 547.331C539.417 547.017 539.226 547.062 538.552 549.742C537.587 553.555 540.774 559.129 545.499 561.91C548.405 563.626 549.045 564.489 547.956 565.185C545.992 566.418 531.617 566.441 530.854 565.196ZM559.369 542.497C559.369 540.165 552.366 511.769 551.57 510.906C551.143 510.424 548.607 516.984 545.925 525.485C543.254 533.974 540.842 541.555 540.561 542.329C540.18 543.383 542.458 543.731 549.707 543.731C555.991 543.731 559.369 543.294 559.369 542.497ZM606.028 565.319C605.669 564.96 605.377 550.37 605.377 532.886V501.115H610.91C615.208 501.115 616.577 501.553 617.048 503.078C617.373 504.155 617.463 517.455 617.227 532.629C617.003 547.802 617.227 560.867 617.721 561.674C618.956 563.671 628.617 562.314 632.309 559.611C633.858 558.489 636.125 555.989 637.359 554.048C638.593 552.12 640.007 550.527 640.501 550.505C640.984 550.482 641.242 553.869 641.062 558.03L640.726 565.599L623.702 565.79C614.343 565.891 606.399 565.678 606.028 565.319ZM646.617 565.532C646.157 565.061 645.775 550.37 645.775 532.886V501.115H665.413H685.051V508.966C685.051 516.894 683.66 519.149 681.774 514.293C681.224 512.902 679.193 510.255 677.241 508.405C674.02 505.355 672.977 505.041 666.176 505.041H658.68L658.366 517.814L658.041 530.587L669.868 529.791L681.685 529.006L681.662 531.597C681.628 536.643 680.439 537.215 672.606 535.948C668.656 535.298 663.775 534.771 661.766 534.771L658.119 534.759V548.094C658.119 562.717 658.164 562.818 665.222 562.773C671.215 562.729 677.88 558.949 681.337 553.633L684.49 548.778L684.827 556.482C685.006 560.721 685.006 564.332 684.827 564.5C683.985 565.319 647.358 566.306 646.617 565.532ZM827.566 533.772V501.115L841.312 501.138C853.465 501.149 855.575 501.441 859.548 503.672C865.697 507.126 868.2 512.285 867.672 520.449C867.38 525.07 866.584 527.593 864.867 529.421L862.476 531.967L865.203 534.591C870.567 539.739 871.263 550.785 866.685 558.299C863.363 563.76 858.167 565.364 841.874 565.925L827.566 566.429V533.772ZM851.3 561.585C854.576 559.835 856.742 553.734 856.742 546.254C856.742 536.756 854.98 534.759 846.575 534.759H839.91V548.127C839.91 557.761 840.302 561.641 841.312 562.056C843.826 563.065 848.988 562.818 851.3 561.585ZM852.983 528.524C855.62 525.889 855.833 524.991 855.441 518.061C854.835 507.317 852.747 504.48 845.498 504.48H839.91V517.937V531.395H845.016C848.988 531.395 850.75 530.767 852.983 528.524ZM874.697 564.018C874.697 562.157 890.497 511.422 893.684 503.033C894.638 500.532 895.524 499.994 898.756 499.994C903.222 499.994 903.974 500.97 906.477 510.098C907.408 513.485 911.493 526.775 915.555 539.638C919.628 552.49 922.95 563.715 922.95 564.59C922.95 565.745 921.334 566.16 916.812 566.16H910.673L908.238 558.03C906.903 553.555 905.309 549.271 904.704 548.497C903.525 546.994 892.18 546.568 886.053 547.791C883.203 548.363 882.552 549.036 882.552 551.447C882.563 555.63 886.468 561.484 889.812 562.325C891.372 562.717 892.651 563.738 892.651 564.601C892.651 565.801 890.598 566.16 883.674 566.16C875.583 566.16 874.697 565.947 874.697 564.018ZM903.435 541.768C903.11 540.692 901.247 533.066 899.306 524.846C897.365 516.614 895.39 510.3 894.907 510.827C893.942 511.859 884.796 540.524 884.796 542.497C884.796 543.294 888.185 543.731 894.413 543.731C903.043 543.731 903.963 543.529 903.435 541.768ZM928.561 533.638V501.115H934.733H940.905L940.949 516.536L940.994 531.956L945.606 526.909C951.049 520.954 958.859 509.268 958.859 507.082C958.859 506.241 957.602 505.063 956.054 504.48C950.566 502.394 953.136 501.115 962.787 501.115C968.027 501.115 972.325 501.441 972.325 501.833C972.325 502.226 967.691 507.9 962.024 514.45C956.357 520.988 951.049 527.145 950.23 528.12C948.973 529.634 949.377 530.789 953.024 535.97C967.578 556.706 973.447 565.241 973.447 565.667C973.447 565.936 969.396 566.16 964.448 566.16C953.854 566.16 955.089 567.82 949.702 546.322L946.212 532.415L943.553 534.905C941.039 537.271 940.905 538.101 940.905 551.772V566.16H934.733H928.561V533.638ZM978.452 564.77C978.149 563.973 978.037 549.45 978.194 532.505L978.497 501.676L997.854 501.373L1017.21 501.059V508.943C1017.21 513.272 1016.83 516.793 1016.37 516.771C1015.91 516.749 1014.52 515.156 1013.28 513.227C1009.7 507.631 1005.89 505.478 998.303 504.794L991.402 504.166V517.343V530.52L1002.62 529.713L1013.85 528.905V533.088V537.26L1009.08 536.61C1006.45 536.262 1001.4 535.645 997.854 535.23L991.402 534.501V548.643V562.796H997.405C1004.51 562.796 1009.59 559.902 1013.77 553.488C1015.32 551.099 1016.92 549.72 1017.47 550.269C1018.01 550.807 1018.3 554.475 1018.11 558.422L1017.77 565.599L998.393 565.902C983.39 566.149 978.879 565.891 978.452 564.77ZM1025.07 533.694V501.115H1038.57C1052.46 501.115 1057.86 502.327 1062.43 506.465C1067.6 511.141 1069.37 523.197 1065.77 529.287C1063.84 532.561 1056.34 537.002 1052.76 537.002C1051.73 537.002 1050.88 537.406 1050.88 537.899C1050.88 539.043 1059.44 552.882 1064.12 559.319C1066.09 562.033 1067.71 564.68 1067.71 565.207C1067.71 565.734 1063.9 566.16 1059.26 566.16C1052.92 566.16 1050.65 565.757 1050.18 564.534C1049.84 563.648 1048.69 557.458 1047.63 550.796L1045.7 538.684L1041.6 538.337L1037.48 537.989L1037.16 551.794L1036.85 565.599L1030.96 565.936L1025.07 566.272V533.694ZM1050.23 533.47C1054.04 531.743 1055.79 525.945 1055.04 517.601C1054.15 507.844 1051.77 505.13 1043.75 504.704L1037.41 504.368V518.812C1037.41 526.763 1037.75 533.604 1038.16 534.008C1039.36 535.219 1047.16 534.871 1050.23 533.47ZM1086.34 565.218C1086.02 564.702 1087.26 560.62 1089.08 556.134C1090.9 551.648 1092.4 547.208 1092.4 546.254C1092.4 545.29 1087.59 535.242 1081.74 523.904C1075.88 512.566 1071.08 502.798 1071.08 502.203C1071.08 501.598 1074.8 501.115 1079.49 501.115C1084.12 501.115 1087.91 501.351 1087.91 501.631C1087.91 503.168 1094.82 535.062 1095.63 537.227C1096.47 539.503 1097.2 538.572 1101.95 529.152C1106.27 520.562 1107.33 517.309 1107.42 512.364C1107.53 506.745 1107.3 506.117 1104.46 504.738C1099.16 502.158 1101.03 501.115 1110.91 501.115C1116.15 501.115 1120.45 501.418 1120.45 501.788C1120.45 502.158 1117.71 507.328 1114.37 513.283C1111.02 519.238 1105.85 529.04 1102.88 535.073L1097.47 546.041L1100.12 553.017C1101.58 556.852 1103.01 561.383 1103.32 563.076L1103.88 566.16H1095.39C1090.74 566.16 1086.66 565.734 1086.34 565.218ZM584.606 562.515C584.269 561.125 584.124 546.871 584.303 530.834L584.617 501.676L590.509 501.34L596.4 501.003V533.021V565.039H590.812C585.941 565.039 585.145 564.714 584.606 562.515ZM703.006 563.816C703.006 563.144 704.352 558.803 706.002 554.172L708.987 545.75L705.272 538.292C700.806 529.331 688.418 502.327 688.418 501.564C688.418 501.261 692.076 501.16 696.553 501.351L704.689 501.676L708.134 519.059C710.019 528.614 711.837 537.193 712.162 538.124C713.105 540.815 723.182 519.036 723.934 512.678C724.562 507.351 724.428 506.958 720.814 504.121L717.033 501.138L726.852 501.127C732.249 501.127 736.671 501.351 736.671 501.631C736.671 501.912 735.1 504.794 733.192 508.035C731.273 511.287 726.145 521.021 721.802 529.679L713.891 545.413L716.864 553.869C718.503 558.523 719.838 562.93 719.838 563.682C719.838 564.624 717.257 565.039 711.422 565.039C706.08 565.039 703.006 564.59 703.006 563.816ZM744.279 527.268C742.136 526.696 741.597 524.218 740.632 510.368L739.981 501.115H746.355H752.718L751.988 513.059C751.124 527.302 750.283 528.838 744.279 527.268Z" fill="#C8C8C8"/>
<path d="M896.405 446.468C920.925 458.92 930.713 462.063 953.278 464.745C961.998 465.789 983.968 463.483 993.562 460.509C1004.43 457.16 1028.72 446.177 1039.01 439.975C1048.3 434.356 1068.86 413.725 1072.23 406.625C1074.7 401.419 1080.97 378.021 1083.27 365.399C1086.58 347.268 1085.31 333.239 1077.95 306.649C1074.6 294.488 1069.3 284.088 1062.31 275.993C1059.12 272.291 1054.43 266.721 1051.9 263.638C1049.37 260.544 1043.97 255.762 1039.91 252.995C1031.79 247.498 1011.21 237.364 1008.14 237.364C1007.07 237.364 1003.57 236.332 1000.35 235.058C991.546 231.587 962.022 227.23 953.278 228.116C929.827 230.471 924.386 231.429 914.415 234.949C896.745 241.199 890.515 245.155 874.933 260.07C858.222 276.078 851.385 286.333 845.762 303.845C840.029 321.673 837.941 335.338 838.001 354.477C838.074 374.902 839.908 383.239 848.166 400.594C853.498 411.795 854.967 413.725 867.173 425.545C879.317 437.293 881.734 439.029 896.405 446.468Z" fill="#3D5F63"/>
<path fill-rule="evenodd" clip-rule="evenodd" d="M901.258 438.65C923.915 450.156 932.96 453.061 953.809 455.539C961.867 456.504 982.166 454.373 991.032 451.625C1001.07 448.53 1023.52 438.381 1033.02 432.65C1041.61 427.458 1060.61 408.393 1063.73 401.832C1066 397.021 1071.79 375.4 1073.93 363.736C1076.98 346.982 1075.81 334.018 1069.01 309.446C1065.91 298.209 1061.01 288.598 1054.56 281.118C1051.61 277.698 1047.27 272.55 1044.94 269.702C1042.6 266.842 1037.61 262.424 1033.85 259.867C1026.36 254.786 1007.34 245.422 1004.5 245.422C1003.51 245.422 1000.28 244.469 997.305 243.291C989.169 240.084 961.889 236.058 953.809 236.877C932.14 239.052 927.113 239.938 917.9 243.19C901.573 248.966 895.816 252.622 881.419 266.405C865.978 281.197 859.66 290.673 854.464 306.856C849.168 323.33 847.237 335.958 847.294 353.643C847.361 372.517 849.055 380.222 856.686 396.259C861.612 406.61 862.97 408.393 874.248 419.316C885.47 430.172 887.703 431.775 901.258 438.65ZM982.829 442.171C994.443 439.222 1002.66 436.149 1015.53 429.903C1033.97 420.953 1041.51 415.458 1047.91 406.296C1055.68 395.205 1057.28 391.066 1060.55 373.639C1063.03 360.428 1063.39 355.909 1062.98 343.001C1062.56 329.588 1062.09 326.627 1058.87 317.196C1052.92 299.735 1043.95 284.483 1033.48 274.019C1025.03 265.575 1013.88 258.465 1012 260.338C1011.61 260.741 1014.32 264.308 1018.03 268.266C1022.86 273.425 1026.41 278.831 1030.53 287.286C1037.55 301.686 1037.85 303.794 1032.33 299.959C1031.12 299.107 1027.93 298.041 1025.25 297.593C1022.58 297.144 1017.16 295.316 1013.21 293.533C1009.27 291.739 1005.86 290.281 1005.64 290.281C1004.83 290.281 1006.17 314.459 1007.12 317.196C1007.65 318.743 1008.41 321.637 1008.82 323.644C1009.41 326.695 1009.2 327.289 1007.47 327.289C1006.34 327.289 1004.77 326.268 1003.99 325.024C1003.22 323.79 1000.56 321.962 998.101 320.975C992.692 318.811 985.466 310.949 981.493 302.897C979.9 299.656 978.205 297.009 977.734 297.009C977.263 297.009 975.175 299.667 973.099 302.92C971.012 306.172 966.075 311.768 962.125 315.334C958.163 318.912 954.55 322.859 954.09 324.093C952.945 327.188 950.645 326.145 949.815 322.164C949.444 320.358 948.255 317.185 947.177 315.11C945.057 311.05 944.451 297.637 945.943 287.757C946.426 284.539 946.313 282.43 945.662 282.43C945.068 282.43 940.343 284.404 935.17 286.815C929.986 289.238 923.23 291.548 920.144 291.963C917.059 292.367 912.862 293.219 910.808 293.847C908.766 294.475 906.791 294.688 906.42 294.318C905.332 293.23 911.638 282.408 918.035 274.401C927.068 263.096 936.147 256.39 947.346 252.768C961.395 248.215 952.137 247.688 934.991 252.061C917.44 256.547 893.044 268.659 885.716 276.532C879.365 283.372 869.804 297.615 868.312 302.482C862.735 320.627 859.031 338.829 858.358 351.434C857.46 368.155 859.076 376.543 866.079 391.515C870.365 400.689 872.531 403.728 880.487 411.735C894.548 425.888 909.271 433.491 937.538 441.207C949.467 444.47 971.899 444.941 982.829 442.171ZM994.712 281.589C997.922 287.107 1001.37 300.015 1001.89 308.516C1002.15 312.687 1001.97 316.343 1001.49 316.646C1001.01 316.938 998.112 314.942 995.06 312.205C988.17 306.015 981.37 292.647 980.483 283.552C979.832 276.991 978.542 273.459 976.769 273.459C976.174 273.459 975.692 275.119 975.692 277.148C975.692 282.509 972.617 293.454 969.823 298.064C966.434 303.66 957.782 313.73 955.156 315.132C952.081 316.781 951.43 315.278 950.555 304.467C949.59 292.456 952.014 278.169 955.986 272.438C958.635 268.614 959.656 265.609 958.298 265.609C957.984 265.609 955.728 267.616 953.271 270.072C945.573 277.765 917.765 290.034 914.781 287.051C913.714 285.985 924.7 272.595 930.962 267.324C933.038 265.586 939.031 262.076 944.271 259.53C949.512 256.973 956.087 253.586 958.859 251.994C963.337 249.415 965.009 249.112 973.56 249.291C982.918 249.493 983.502 249.661 992.636 254.977C1008.77 264.352 1012.73 267.818 1019.68 278.674C1027.65 291.122 1028.22 292.524 1025.4 292.524C1022.06 292.524 1003.86 284.853 998.561 281.219C995.947 279.414 993.534 277.945 993.197 277.945C992.872 277.945 993.557 279.582 994.712 281.589Z" fill="#C8C8C8"/>
</g>
<defs>
<clipPath id="clip0_1_2">
<rect width="1201" height="724" fill="white"/>
</clipPath>
<clipPath id="clip1_1_2">
<rect width="1201" height="724" fill="white"/>
</clipPath>
</defs>
</svg>
